<mxfile host="app.diagrams.net" agent="Mozilla/5.0 (Macintosh; Intel Mac OS X 10_15_7) AppleWebKit/537.36 (KHTML, like Gecko) Chrome/139.0.0.0 Safari/537.36" version="28.1.1">
  <diagram name="第 1 页" id="bzNie4RG8URf55M5gRZ4">
    <mxGraphModel dx="2372" dy="836" grid="1" gridSize="10" guides="1" tooltips="1" connect="1" arrows="1" fold="1" page="1" pageScale="1" pageWidth="827" pageHeight="1169" math="0" shadow="0">
      <root>
        <mxCell id="0" />
        <mxCell id="1" parent="0" />
        <mxCell id="MFNcb43IMwzJ_zAJ6HgL-9" style="edgeStyle=orthogonalEdgeStyle;rounded=0;orthogonalLoop=1;jettySize=auto;html=1;exitX=0.5;exitY=0;exitDx=0;exitDy=0;entryX=0.5;entryY=0;entryDx=0;entryDy=0;" parent="1" source="MFNcb43IMwzJ_zAJ6HgL-1" target="MFNcb43IMwzJ_zAJ6HgL-8" edge="1">
          <mxGeometry relative="1" as="geometry">
            <Array as="points">
              <mxPoint x="130" y="70" />
              <mxPoint x="600" y="70" />
            </Array>
          </mxGeometry>
        </mxCell>
        <mxCell id="MFNcb43IMwzJ_zAJ6HgL-11" value="http&amp;nbsp; 判题请求 （oj实时、oj延时、学生端实时）" style="edgeLabel;html=1;align=center;verticalAlign=middle;resizable=0;points=[];" parent="MFNcb43IMwzJ_zAJ6HgL-9" vertex="1" connectable="0">
          <mxGeometry x="-0.0214" y="-2" relative="1" as="geometry">
            <mxPoint as="offset" />
          </mxGeometry>
        </mxCell>
        <mxCell id="MFNcb43IMwzJ_zAJ6HgL-32" style="edgeStyle=orthogonalEdgeStyle;rounded=0;orthogonalLoop=1;jettySize=auto;html=1;exitX=1;exitY=0.5;exitDx=0;exitDy=0;entryX=0;entryY=0.5;entryDx=0;entryDy=0;" parent="1" source="MFNcb43IMwzJ_zAJ6HgL-1" target="MFNcb43IMwzJ_zAJ6HgL-5" edge="1">
          <mxGeometry relative="1" as="geometry" />
        </mxCell>
        <mxCell id="MFNcb43IMwzJ_zAJ6HgL-1" value="online-judge-service" style="rounded=1;whiteSpace=wrap;html=1;" parent="1" vertex="1">
          <mxGeometry x="70" y="280" width="120" height="60" as="geometry" />
        </mxCell>
        <mxCell id="MFNcb43IMwzJ_zAJ6HgL-33" style="edgeStyle=orthogonalEdgeStyle;rounded=0;orthogonalLoop=1;jettySize=auto;html=1;exitX=1;exitY=0.25;exitDx=0;exitDy=0;entryX=0;entryY=0.5;entryDx=0;entryDy=0;" parent="1" source="MFNcb43IMwzJ_zAJ6HgL-2" target="MFNcb43IMwzJ_zAJ6HgL-12" edge="1">
          <mxGeometry relative="1" as="geometry" />
        </mxCell>
        <mxCell id="MFNcb43IMwzJ_zAJ6HgL-34" style="edgeStyle=orthogonalEdgeStyle;rounded=0;orthogonalLoop=1;jettySize=auto;html=1;exitX=1;exitY=0.75;exitDx=0;exitDy=0;entryX=0;entryY=0.5;entryDx=0;entryDy=0;" parent="1" source="MFNcb43IMwzJ_zAJ6HgL-2" target="MFNcb43IMwzJ_zAJ6HgL-6" edge="1">
          <mxGeometry relative="1" as="geometry" />
        </mxCell>
        <mxCell id="MFNcb43IMwzJ_zAJ6HgL-2" value="长连接&lt;div&gt;业务&lt;/div&gt;" style="rounded=1;whiteSpace=wrap;html=1;" parent="1" vertex="1">
          <mxGeometry x="120" y="518" width="70" height="60" as="geometry" />
        </mxCell>
        <mxCell id="MFNcb43IMwzJ_zAJ6HgL-3" value="" style="endArrow=none;dashed=1;html=1;rounded=0;" parent="1" edge="1">
          <mxGeometry width="50" height="50" relative="1" as="geometry">
            <mxPoint x="400" y="840" as="sourcePoint" />
            <mxPoint x="400" as="targetPoint" />
          </mxGeometry>
        </mxCell>
        <mxCell id="MFNcb43IMwzJ_zAJ6HgL-5" value="判题结果mq" style="rounded=1;whiteSpace=wrap;html=1;" parent="1" vertex="1">
          <mxGeometry x="230" y="295" width="120" height="30" as="geometry" />
        </mxCell>
        <mxCell id="MFNcb43IMwzJ_zAJ6HgL-6" value="&lt;div&gt;mq&lt;/div&gt;server -&amp;gt; client" style="rounded=1;whiteSpace=wrap;html=1;" parent="1" vertex="1">
          <mxGeometry x="230" y="568" width="120" height="30" as="geometry" />
        </mxCell>
        <mxCell id="MFNcb43IMwzJ_zAJ6HgL-28" style="edgeStyle=orthogonalEdgeStyle;rounded=0;orthogonalLoop=1;jettySize=auto;html=1;exitX=0;exitY=0.5;exitDx=0;exitDy=0;entryX=1;entryY=0.5;entryDx=0;entryDy=0;" parent="1" source="MFNcb43IMwzJ_zAJ6HgL-8" target="MFNcb43IMwzJ_zAJ6HgL-5" edge="1">
          <mxGeometry relative="1" as="geometry" />
        </mxCell>
        <mxCell id="MFNcb43IMwzJ_zAJ6HgL-36" style="edgeStyle=orthogonalEdgeStyle;rounded=0;orthogonalLoop=1;jettySize=auto;html=1;exitX=0.75;exitY=0;exitDx=0;exitDy=0;entryX=0.5;entryY=0;entryDx=0;entryDy=0;" parent="1" source="MFNcb43IMwzJ_zAJ6HgL-8" target="MFNcb43IMwzJ_zAJ6HgL-15" edge="1">
          <mxGeometry relative="1" as="geometry" />
        </mxCell>
        <mxCell id="MFNcb43IMwzJ_zAJ6HgL-38" value="判题请求&amp;nbsp;&lt;div&gt;（oj实时、oj延时、学生端实时）&lt;/div&gt;" style="edgeLabel;html=1;align=center;verticalAlign=middle;resizable=0;points=[];" parent="MFNcb43IMwzJ_zAJ6HgL-36" vertex="1" connectable="0">
          <mxGeometry x="-0.2308" y="3" relative="1" as="geometry">
            <mxPoint as="offset" />
          </mxGeometry>
        </mxCell>
        <mxCell id="MFNcb43IMwzJ_zAJ6HgL-8" value="oj&amp;nbsp;&lt;div&gt;实时判题&lt;/div&gt;" style="rounded=1;whiteSpace=wrap;html=1;" parent="1" vertex="1">
          <mxGeometry x="540" y="190" width="120" height="60" as="geometry" />
        </mxCell>
        <mxCell id="MFNcb43IMwzJ_zAJ6HgL-12" value="&lt;div&gt;mq&lt;/div&gt;&lt;div&gt;&lt;span style=&quot;background-color: transparent; color: light-dark(rgb(0, 0, 0), rgb(255, 255, 255));&quot;&gt;client -&amp;gt; server&lt;/span&gt;&lt;/div&gt;" style="rounded=1;whiteSpace=wrap;html=1;" parent="1" vertex="1">
          <mxGeometry x="230" y="498" width="120" height="30" as="geometry" />
        </mxCell>
        <mxCell id="MFNcb43IMwzJ_zAJ6HgL-29" style="edgeStyle=orthogonalEdgeStyle;rounded=0;orthogonalLoop=1;jettySize=auto;html=1;exitX=0;exitY=0.5;exitDx=0;exitDy=0;" parent="1" source="MFNcb43IMwzJ_zAJ6HgL-13" edge="1">
          <mxGeometry relative="1" as="geometry">
            <mxPoint x="350" y="310" as="targetPoint" />
          </mxGeometry>
        </mxCell>
        <mxCell id="MFNcb43IMwzJ_zAJ6HgL-58" style="edgeStyle=orthogonalEdgeStyle;rounded=0;orthogonalLoop=1;jettySize=auto;html=1;exitX=0;exitY=0.5;exitDx=0;exitDy=0;entryX=0.5;entryY=1;entryDx=0;entryDy=0;strokeColor=#FF0000;" parent="1" edge="1">
          <mxGeometry relative="1" as="geometry">
            <mxPoint x="535.0000000000002" y="310" as="sourcePoint" />
            <mxPoint x="125" y="340" as="targetPoint" />
            <Array as="points">
              <mxPoint x="445" y="310" />
              <mxPoint x="445" y="370" />
              <mxPoint x="125" y="370" />
            </Array>
          </mxGeometry>
        </mxCell>
        <mxCell id="MFNcb43IMwzJ_zAJ6HgL-59" value="judgeResultMqRate = 0" style="edgeLabel;html=1;align=center;verticalAlign=middle;resizable=0;points=[];" parent="MFNcb43IMwzJ_zAJ6HgL-58" vertex="1" connectable="0">
          <mxGeometry x="0.2511" y="-2" relative="1" as="geometry">
            <mxPoint as="offset" />
          </mxGeometry>
        </mxCell>
        <mxCell id="MFNcb43IMwzJ_zAJ6HgL-13" value="oj&amp;nbsp;&lt;div&gt;延时判题&lt;/div&gt;" style="rounded=1;whiteSpace=wrap;html=1;" parent="1" vertex="1">
          <mxGeometry x="540" y="280" width="120" height="60" as="geometry" />
        </mxCell>
        <mxCell id="MFNcb43IMwzJ_zAJ6HgL-30" style="edgeStyle=orthogonalEdgeStyle;rounded=0;orthogonalLoop=1;jettySize=auto;html=1;exitX=0;exitY=0.5;exitDx=0;exitDy=0;entryX=1;entryY=0.5;entryDx=0;entryDy=0;" parent="1" source="MFNcb43IMwzJ_zAJ6HgL-14" target="MFNcb43IMwzJ_zAJ6HgL-5" edge="1">
          <mxGeometry relative="1" as="geometry" />
        </mxCell>
        <mxCell id="MFNcb43IMwzJ_zAJ6HgL-14" value="&lt;span style=&quot;background-color: transparent; color: light-dark(rgb(0, 0, 0), rgb(255, 255, 255));&quot;&gt;学生端&lt;/span&gt;&lt;div&gt;实时判题&lt;/div&gt;" style="rounded=1;whiteSpace=wrap;html=1;" parent="1" vertex="1">
          <mxGeometry x="540" y="370" width="120" height="60" as="geometry" />
        </mxCell>
        <mxCell id="MFNcb43IMwzJ_zAJ6HgL-15" value="mq" style="rounded=1;whiteSpace=wrap;html=1;" parent="1" vertex="1">
          <mxGeometry x="760" y="190" width="50" height="240" as="geometry" />
        </mxCell>
        <mxCell id="MFNcb43IMwzJ_zAJ6HgL-16" style="edgeStyle=orthogonalEdgeStyle;rounded=0;orthogonalLoop=1;jettySize=auto;html=1;exitX=1;exitY=0.25;exitDx=0;exitDy=0;entryX=-0.02;entryY=0.063;entryDx=0;entryDy=0;entryPerimeter=0;" parent="1" source="MFNcb43IMwzJ_zAJ6HgL-8" target="MFNcb43IMwzJ_zAJ6HgL-15" edge="1">
          <mxGeometry relative="1" as="geometry" />
        </mxCell>
        <mxCell id="MFNcb43IMwzJ_zAJ6HgL-17" value="编译" style="edgeLabel;html=1;align=center;verticalAlign=middle;resizable=0;points=[];" parent="MFNcb43IMwzJ_zAJ6HgL-16" vertex="1" connectable="0">
          <mxGeometry x="-0.2533" y="1" relative="1" as="geometry">
            <mxPoint as="offset" />
          </mxGeometry>
        </mxCell>
        <mxCell id="MFNcb43IMwzJ_zAJ6HgL-18" style="edgeStyle=orthogonalEdgeStyle;rounded=0;orthogonalLoop=1;jettySize=auto;html=1;exitX=1;exitY=0.75;exitDx=0;exitDy=0;entryX=-0.04;entryY=0.188;entryDx=0;entryDy=0;entryPerimeter=0;" parent="1" source="MFNcb43IMwzJ_zAJ6HgL-8" target="MFNcb43IMwzJ_zAJ6HgL-15" edge="1">
          <mxGeometry relative="1" as="geometry" />
        </mxCell>
        <mxCell id="MFNcb43IMwzJ_zAJ6HgL-19" value="运行" style="edgeLabel;html=1;align=center;verticalAlign=middle;resizable=0;points=[];" parent="MFNcb43IMwzJ_zAJ6HgL-18" vertex="1" connectable="0">
          <mxGeometry x="-0.1641" y="1" relative="1" as="geometry">
            <mxPoint x="1" as="offset" />
          </mxGeometry>
        </mxCell>
        <mxCell id="MFNcb43IMwzJ_zAJ6HgL-20" style="edgeStyle=orthogonalEdgeStyle;rounded=0;orthogonalLoop=1;jettySize=auto;html=1;exitX=1;exitY=0.25;exitDx=0;exitDy=0;entryX=-0.02;entryY=0.063;entryDx=0;entryDy=0;entryPerimeter=0;" parent="1" edge="1">
          <mxGeometry relative="1" as="geometry">
            <mxPoint x="661" y="295" as="sourcePoint" />
            <mxPoint x="760" y="295" as="targetPoint" />
          </mxGeometry>
        </mxCell>
        <mxCell id="MFNcb43IMwzJ_zAJ6HgL-21" value="编译" style="edgeLabel;html=1;align=center;verticalAlign=middle;resizable=0;points=[];" parent="MFNcb43IMwzJ_zAJ6HgL-20" vertex="1" connectable="0">
          <mxGeometry x="-0.2533" y="1" relative="1" as="geometry">
            <mxPoint as="offset" />
          </mxGeometry>
        </mxCell>
        <mxCell id="MFNcb43IMwzJ_zAJ6HgL-22" style="edgeStyle=orthogonalEdgeStyle;rounded=0;orthogonalLoop=1;jettySize=auto;html=1;exitX=1;exitY=0.25;exitDx=0;exitDy=0;entryX=-0.02;entryY=0.063;entryDx=0;entryDy=0;entryPerimeter=0;" parent="1" edge="1">
          <mxGeometry relative="1" as="geometry">
            <mxPoint x="661" y="390" as="sourcePoint" />
            <mxPoint x="760" y="390" as="targetPoint" />
          </mxGeometry>
        </mxCell>
        <mxCell id="MFNcb43IMwzJ_zAJ6HgL-23" value="编译" style="edgeLabel;html=1;align=center;verticalAlign=middle;resizable=0;points=[];" parent="MFNcb43IMwzJ_zAJ6HgL-22" vertex="1" connectable="0">
          <mxGeometry x="-0.2533" y="1" relative="1" as="geometry">
            <mxPoint as="offset" />
          </mxGeometry>
        </mxCell>
        <mxCell id="MFNcb43IMwzJ_zAJ6HgL-24" style="edgeStyle=orthogonalEdgeStyle;rounded=0;orthogonalLoop=1;jettySize=auto;html=1;exitX=1;exitY=0.75;exitDx=0;exitDy=0;entryX=-0.04;entryY=0.188;entryDx=0;entryDy=0;entryPerimeter=0;" parent="1" edge="1">
          <mxGeometry relative="1" as="geometry">
            <mxPoint x="662" y="325" as="sourcePoint" />
            <mxPoint x="760" y="325" as="targetPoint" />
          </mxGeometry>
        </mxCell>
        <mxCell id="MFNcb43IMwzJ_zAJ6HgL-25" value="运行" style="edgeLabel;html=1;align=center;verticalAlign=middle;resizable=0;points=[];" parent="MFNcb43IMwzJ_zAJ6HgL-24" vertex="1" connectable="0">
          <mxGeometry x="-0.1641" y="1" relative="1" as="geometry">
            <mxPoint x="1" as="offset" />
          </mxGeometry>
        </mxCell>
        <mxCell id="MFNcb43IMwzJ_zAJ6HgL-26" style="edgeStyle=orthogonalEdgeStyle;rounded=0;orthogonalLoop=1;jettySize=auto;html=1;exitX=1;exitY=0.75;exitDx=0;exitDy=0;entryX=-0.04;entryY=0.188;entryDx=0;entryDy=0;entryPerimeter=0;" parent="1" edge="1">
          <mxGeometry relative="1" as="geometry">
            <mxPoint x="662" y="420" as="sourcePoint" />
            <mxPoint x="760" y="420" as="targetPoint" />
          </mxGeometry>
        </mxCell>
        <mxCell id="MFNcb43IMwzJ_zAJ6HgL-27" value="运行" style="edgeLabel;html=1;align=center;verticalAlign=middle;resizable=0;points=[];" parent="MFNcb43IMwzJ_zAJ6HgL-26" vertex="1" connectable="0">
          <mxGeometry x="-0.1641" y="1" relative="1" as="geometry">
            <mxPoint x="1" as="offset" />
          </mxGeometry>
        </mxCell>
        <mxCell id="MFNcb43IMwzJ_zAJ6HgL-50" style="edgeStyle=orthogonalEdgeStyle;rounded=0;orthogonalLoop=1;jettySize=auto;html=1;exitX=1;exitY=0.5;exitDx=0;exitDy=0;entryX=0;entryY=0.5;entryDx=0;entryDy=0;" parent="1" source="MFNcb43IMwzJ_zAJ6HgL-31" target="MFNcb43IMwzJ_zAJ6HgL-1" edge="1">
          <mxGeometry relative="1" as="geometry" />
        </mxCell>
        <mxCell id="MFNcb43IMwzJ_zAJ6HgL-31" value="前端/客户端" style="rounded=1;whiteSpace=wrap;html=1;" parent="1" vertex="1">
          <mxGeometry x="-140" y="280" width="120" height="60" as="geometry" />
        </mxCell>
        <mxCell id="MFNcb43IMwzJ_zAJ6HgL-43" style="edgeStyle=orthogonalEdgeStyle;rounded=0;orthogonalLoop=1;jettySize=auto;html=1;exitX=1;exitY=0.25;exitDx=0;exitDy=0;entryX=0;entryY=0.5;entryDx=0;entryDy=0;" parent="1" source="MFNcb43IMwzJ_zAJ6HgL-39" target="MFNcb43IMwzJ_zAJ6HgL-41" edge="1">
          <mxGeometry relative="1" as="geometry" />
        </mxCell>
        <mxCell id="MFNcb43IMwzJ_zAJ6HgL-44" style="edgeStyle=orthogonalEdgeStyle;rounded=0;orthogonalLoop=1;jettySize=auto;html=1;exitX=1;exitY=0.75;exitDx=0;exitDy=0;entryX=0;entryY=0.5;entryDx=0;entryDy=0;" parent="1" source="MFNcb43IMwzJ_zAJ6HgL-39" target="MFNcb43IMwzJ_zAJ6HgL-42" edge="1">
          <mxGeometry relative="1" as="geometry" />
        </mxCell>
        <mxCell id="MFNcb43IMwzJ_zAJ6HgL-47" style="edgeStyle=orthogonalEdgeStyle;rounded=0;orthogonalLoop=1;jettySize=auto;html=1;exitX=0;exitY=0.25;exitDx=0;exitDy=0;entryX=1;entryY=0.5;entryDx=0;entryDy=0;" parent="1" source="MFNcb43IMwzJ_zAJ6HgL-39" target="MFNcb43IMwzJ_zAJ6HgL-12" edge="1">
          <mxGeometry relative="1" as="geometry" />
        </mxCell>
        <mxCell id="MFNcb43IMwzJ_zAJ6HgL-48" style="edgeStyle=orthogonalEdgeStyle;rounded=0;orthogonalLoop=1;jettySize=auto;html=1;exitX=0;exitY=0.75;exitDx=0;exitDy=0;entryX=1;entryY=0.5;entryDx=0;entryDy=0;" parent="1" source="MFNcb43IMwzJ_zAJ6HgL-39" target="MFNcb43IMwzJ_zAJ6HgL-6" edge="1">
          <mxGeometry relative="1" as="geometry" />
        </mxCell>
        <mxCell id="MFNcb43IMwzJ_zAJ6HgL-63" style="edgeStyle=orthogonalEdgeStyle;rounded=0;orthogonalLoop=1;jettySize=auto;html=1;exitX=0;exitY=0.75;exitDx=0;exitDy=0;entryX=0.5;entryY=1;entryDx=0;entryDy=0;strokeColor=#FF0000;" parent="1" source="MFNcb43IMwzJ_zAJ6HgL-39" target="MFNcb43IMwzJ_zAJ6HgL-2" edge="1">
          <mxGeometry relative="1" as="geometry">
            <Array as="points">
              <mxPoint x="540" y="630" />
              <mxPoint x="155" y="630" />
            </Array>
          </mxGeometry>
        </mxCell>
        <mxCell id="MFNcb43IMwzJ_zAJ6HgL-64" value="hyperMqRate&lt;span style=&quot;background-color: light-dark(#ffffff, var(--ge-dark-color, #121212)); color: light-dark(rgb(0, 0, 0), rgb(255, 255, 255));&quot;&gt;&amp;nbsp;= 0&lt;/span&gt;" style="edgeLabel;html=1;align=center;verticalAlign=middle;resizable=0;points=[];" parent="MFNcb43IMwzJ_zAJ6HgL-63" vertex="1" connectable="0">
          <mxGeometry x="0.0231" y="-1" relative="1" as="geometry">
            <mxPoint as="offset" />
          </mxGeometry>
        </mxCell>
        <mxCell id="MFNcb43IMwzJ_zAJ6HgL-39" value="云编译运行&lt;br&gt;&lt;div&gt;在线gdb调试&lt;/div&gt;" style="rounded=1;whiteSpace=wrap;html=1;" parent="1" vertex="1">
          <mxGeometry x="540" y="518" width="120" height="60" as="geometry" />
        </mxCell>
        <mxCell id="MFNcb43IMwzJ_zAJ6HgL-41" value="redis&amp;nbsp;&lt;span style=&quot;background-color: transparent; color: light-dark(rgb(0, 0, 0), rgb(255, 255, 255));&quot;&gt;list&amp;nbsp;&lt;/span&gt;&lt;div&gt;&lt;span style=&quot;background-color: transparent; color: light-dark(rgb(0, 0, 0), rgb(255, 255, 255));&quot;&gt;code_runs&lt;/span&gt;&lt;/div&gt;" style="rounded=1;whiteSpace=wrap;html=1;" parent="1" vertex="1">
          <mxGeometry x="750" y="498" width="120" height="30" as="geometry" />
        </mxCell>
        <mxCell id="MFNcb43IMwzJ_zAJ6HgL-42" value="redis&amp;nbsp;&lt;span style=&quot;background-color: transparent; color: light-dark(rgb(0, 0, 0), rgb(255, 255, 255));&quot;&gt;list&lt;/span&gt;&lt;div&gt;&lt;span style=&quot;background-color: transparent; color: light-dark(rgb(0, 0, 0), rgb(255, 255, 255));&quot;&gt;input_xxxxxxxx&lt;/span&gt;&lt;/div&gt;" style="rounded=1;whiteSpace=wrap;html=1;" parent="1" vertex="1">
          <mxGeometry x="750" y="568" width="120" height="30" as="geometry" />
        </mxCell>
        <mxCell id="MFNcb43IMwzJ_zAJ6HgL-46" value="不rebalance" style="text;html=1;align=center;verticalAlign=middle;whiteSpace=wrap;rounded=0;" parent="1" vertex="1">
          <mxGeometry x="670" y="490" width="70" height="30" as="geometry" />
        </mxCell>
        <mxCell id="MFNcb43IMwzJ_zAJ6HgL-62" style="edgeStyle=orthogonalEdgeStyle;rounded=0;orthogonalLoop=1;jettySize=auto;html=1;exitX=1;exitY=0.5;exitDx=0;exitDy=0;entryX=0;entryY=0.5;entryDx=0;entryDy=0;" parent="1" source="MFNcb43IMwzJ_zAJ6HgL-49" target="MFNcb43IMwzJ_zAJ6HgL-60" edge="1">
          <mxGeometry relative="1" as="geometry" />
        </mxCell>
        <mxCell id="MFNcb43IMwzJ_zAJ6HgL-49" value="u3d客户端" style="rounded=1;whiteSpace=wrap;html=1;" parent="1" vertex="1">
          <mxGeometry x="-140" y="518" width="120" height="60" as="geometry" />
        </mxCell>
        <mxCell id="MFNcb43IMwzJ_zAJ6HgL-61" style="edgeStyle=orthogonalEdgeStyle;rounded=0;orthogonalLoop=1;jettySize=auto;html=1;exitX=1;exitY=0.5;exitDx=0;exitDy=0;entryX=0;entryY=0.5;entryDx=0;entryDy=0;" parent="1" source="MFNcb43IMwzJ_zAJ6HgL-60" target="MFNcb43IMwzJ_zAJ6HgL-2" edge="1">
          <mxGeometry relative="1" as="geometry" />
        </mxCell>
        <mxCell id="MFNcb43IMwzJ_zAJ6HgL-60" value="长连接" style="rounded=1;whiteSpace=wrap;html=1;" parent="1" vertex="1">
          <mxGeometry x="40" y="518" width="20" height="60" as="geometry" />
        </mxCell>
        <mxCell id="xJ9VzECkqL2TgVyf7tf8-1" value="http和mq能力" style="text;html=1;align=center;verticalAlign=middle;whiteSpace=wrap;rounded=0;strokeColor=#FF0000;" vertex="1" parent="1">
          <mxGeometry x="30" y="350" width="80" height="30" as="geometry" />
        </mxCell>
        <mxCell id="xJ9VzECkqL2TgVyf7tf8-2" value="http和mq能力" style="text;html=1;align=center;verticalAlign=middle;whiteSpace=wrap;rounded=0;strokeColor=#FF0000;" vertex="1" parent="1">
          <mxGeometry x="70" y="585" width="80" height="30" as="geometry" />
        </mxCell>
        <mxCell id="xJ9VzECkqL2TgVyf7tf8-3" value="apllo判断是否用mq" style="text;html=1;align=center;verticalAlign=middle;whiteSpace=wrap;rounded=0;strokeColor=#FF0000;" vertex="1" parent="1">
          <mxGeometry x="530" y="440" width="60" height="30" as="geometry" />
        </mxCell>
        <mxCell id="xJ9VzECkqL2TgVyf7tf8-4" value="apllo判断是否用mq" style="text;html=1;align=center;verticalAlign=middle;whiteSpace=wrap;rounded=0;strokeColor=#FF0000;" vertex="1" parent="1">
          <mxGeometry x="570" y="598" width="60" height="30" as="geometry" />
        </mxCell>
      </root>
    </mxGraphModel>
  </diagram>
</mxfile>
